# MagicaVoxel @ Ephtracy

# group
o 

# material
mtllib Nave2.mtl
usemtl palette

# normals
vn -1 0 0
vn 1 0 0
vn 0 0 1
vn 0 0 -1
vn 0 -1 0
vn 0 1 0

# texcoords
vt 0.185547 0.5
vt 0.806641 0.5
vt 0.962891 0.5

# verts
v -1.7 0.4 0.6
v -1.7 0.4 -5.96046e-08
v -1.7 0.6 0.6
v -1.7 0.6 -5.96046e-08
v -1.6 0.6 0.6
v -1.6 0.6 -5.96046e-08
v -1.6 0.7 0.6
v -1.6 0.7 -5.96046e-08
v -1.5 0.7 0.6
v -1.5 0.7 -5.96046e-08
v -1.5 0.8 0.6
v -1.5 0.8 -5.96046e-08
v -1.4 0.8 0.6
v -1.4 0.8 -5.96046e-08
v -1.4 0.9 0.6
v -1.4 0.9 -5.96046e-08
v -1.2 0.7 0.6
v -1.2 0.7 -5.96046e-08
v -1.2 0.8 0.6
v -1.2 0.8 -5.96046e-08
v -1.1 0.6 0.6
v -1.1 0.6 -5.96046e-08
v -1.1 0.7 0.6
v -1.1 0.7 -5.96046e-08
v -1 0.5 0.6
v -1 0.5 -5.96046e-08
v -1 0.6 0.6
v -1 0.6 -5.96046e-08
v -0.9 0.4 0.6
v -0.9 0.4 -5.96046e-08
v -0.9 0.5 0.6
v -0.9 0.5 -5.96046e-08
v -0.9 0.7 0.6
v -0.9 0.7 -5.96046e-08
v -0.9 0.8 0.6
v -0.9 0.8 -5.96046e-08
v -0.9 0.9 0.6
v -0.9 0.9 -5.96046e-08
v -0.9 1 0.6
v -0.9 1 -5.96046e-08
v -0.9 1.1 0.6
v -0.9 1.1 -5.96046e-08
v -0.9 1.2 0.6
v -0.9 1.2 -5.96046e-08
v -0.8 0.3 0.6
v -0.8 0.3 -5.96046e-08
v -0.8 0.4 0.6
v -0.8 0.4 -5.96046e-08
v -0.8 0.8 0.6
v -0.8 0.8 -5.96046e-08
v -0.8 0.9 0.6
v -0.8 0.9 -5.96046e-08
v -0.7 0.2 0.6
v -0.7 0.2 -5.96046e-08
v -0.7 0.3 0.6
v -0.7 0.3 -5.96046e-08
v -0.7 1 0.6
v -0.7 1 -5.96046e-08
v -0.7 1.1 0.6
v -0.7 1.1 -5.96046e-08
v -0.6 0.1 0.6
v -0.6 0.1 -5.96046e-08
v -0.6 0.2 0.6
v -0.6 0.2 -5.96046e-08
v -0.5 1.1 0.6
v -0.5 1.1 -5.96046e-08
v -0.5 1.2 0.6
v -0.5 1.2 -5.96046e-08
v -0.4 0 0.5
v -0.4 0 0.0999999
v -0.4 0.1 0.5
v -0.4 0.1 0.0999999
v 0.2 0.4 0.6
v 0.2 0.4 0.0999999
v 0.2 1.1 0.6
v 0.2 1.1 0.0999999
v 0.8 1.1 0.6
v 0.8 1.1 -5.96046e-08
v 0.8 1.2 0.6
v 0.8 1.2 -5.96046e-08
v 1 1 0.6
v 1 1 -5.96046e-08
v 1 1.1 0.6
v 1 1.1 -5.96046e-08
v 1.2 0.7 0.6
v 1.2 0.7 -5.96046e-08
v 1.2 0.8 0.6
v 1.2 0.8 -5.96046e-08
v 1.3 0.8 0.6
v 1.3 0.8 -5.96046e-08
v 1.3 0.9 0.6
v 1.3 0.9 -5.96046e-08
v 1.5 0.7 0.6
v 1.5 0.7 -5.96046e-08
v 1.5 0.8 0.6
v 1.5 0.8 -5.96046e-08
v 1.6 0.6 0.6
v 1.6 0.6 -5.96046e-08
v 1.6 0.7 0.6
v 1.6 0.7 -5.96046e-08
v 1.7 0.5 0.6
v 1.7 0.5 -5.96046e-08
v 1.7 0.6 0.6
v 1.7 0.6 -5.96046e-08
v 1.8 0.4 0.6
v 1.8 0.4 -5.96046e-08
v 1.8 0.5 0.6
v 1.8 0.5 -5.96046e-08
v -1.6 0.4 0.6
v -1.6 0.4 -5.96046e-08
v -1.6 0.5 0.6
v -1.6 0.5 -5.96046e-08
v -1.5 0.5 0.6
v -1.5 0.5 -5.96046e-08
v -1.5 0.6 0.6
v -1.5 0.6 -5.96046e-08
v -1.4 0.6 0.6
v -1.4 0.6 -5.96046e-08
v -1.4 0.7 0.6
v -1.4 0.7 -5.96046e-08
v -1.3 0.7 0.6
v -1.3 0.7 -5.96046e-08
v -1.3 0.8 0.6
v -1.3 0.8 -5.96046e-08
v -1.1 0.8 0.6
v -1.1 0.8 -5.96046e-08
v -1.1 0.9 0.6
v -1.1 0.9 -5.96046e-08
v -1 0.7 0.6
v -1 0.7 -5.96046e-08
v -1 0.8 0.6
v -1 0.8 -5.96046e-08
v -0.8 1 0.6
v -0.8 1 -5.96046e-08
v -0.8 1.1 0.6
v -0.8 1.1 -5.96046e-08
v -0.6 1.1 0.6
v -0.6 1.1 -5.96046e-08
v -0.6 1.2 0.6
v -0.6 1.2 -5.96046e-08
v 1.19209e-07 0.4 0.6
v 1.19209e-07 0.4 0.0999999
v 1.19209e-07 1.1 0.6
v 1.19209e-07 1.1 0.0999999
v 0.6 0 0.5
v 0.6 0 0.0999999
v 0.6 0.1 0.5
v 0.6 0.1 0.0999999
v 0.7 1.1 0.6
v 0.7 1.1 -5.96046e-08
v 0.7 1.2 0.6
v 0.7 1.2 -5.96046e-08
v 0.8 0.1 0.6
v 0.8 0.1 -5.96046e-08
v 0.8 0.2 0.6
v 0.8 0.2 -5.96046e-08
v 0.9 0.2 0.6
v 0.9 0.2 -5.96046e-08
v 0.9 0.3 0.6
v 0.9 0.3 -5.96046e-08
v 0.9 1 0.6
v 0.9 1 -5.96046e-08
v 0.9 1.1 0.6
v 0.9 1.1 -5.96046e-08
v 1 0.3 0.6
v 1 0.3 -5.96046e-08
v 1 0.4 0.6
v 1 0.4 -5.96046e-08
v 1 0.8 0.6
v 1 0.8 -5.96046e-08
v 1 0.9 0.6
v 1 0.9 -5.96046e-08
v 1.1 0.4 0.6
v 1.1 0.4 -5.96046e-08
v 1.1 0.5 0.6
v 1.1 0.5 -5.96046e-08
v 1.1 0.7 0.6
v 1.1 0.7 -5.96046e-08
v 1.1 0.8 0.6
v 1.1 0.8 -5.96046e-08
v 1.1 0.9 0.6
v 1.1 0.9 -5.96046e-08
v 1.1 1 0.6
v 1.1 1 -5.96046e-08
v 1.1 1.1 0.6
v 1.1 1.1 -5.96046e-08
v 1.1 1.2 0.6
v 1.1 1.2 -5.96046e-08
v 1.2 0.5 0.6
v 1.2 0.5 -5.96046e-08
v 1.2 0.6 0.6
v 1.2 0.6 -5.96046e-08
v 1.3 0.6 0.6
v 1.3 0.6 -5.96046e-08
v 1.3 0.7 0.6
v 1.3 0.7 -5.96046e-08
v 1.4 0.7 0.6
v 1.4 0.7 -5.96046e-08
v 1.4 0.8 0.6
v 1.4 0.8 -5.96046e-08
v 1.6 0.8 0.6
v 1.6 0.8 -5.96046e-08
v 1.6 0.9 0.6
v 1.6 0.9 -5.96046e-08
v 1.7 0.7 0.6
v 1.7 0.7 -5.96046e-08
v 1.7 0.8 0.6
v 1.7 0.8 -5.96046e-08
v 1.8 0.6 0.6
v 1.8 0.6 -5.96046e-08
v 1.8 0.7 0.6
v 1.8 0.7 -5.96046e-08
v 1.9 0.4 0.6
v 1.9 0.4 -5.96046e-08
v 1.9 0.6 0.6
v 1.9 0.6 -5.96046e-08
v -1.7 0.4 0.6
v -1.7 0.6 0.6
v -1.6 0.4 0.6
v -1.6 0.5 0.6
v -1.6 0.6 0.6
v -1.6 0.7 0.6
v -1.5 0.5 0.6
v -1.5 0.6 0.6
v -1.5 0.7 0.6
v -1.5 0.8 0.6
v -1.4 0.6 0.6
v -1.4 0.7 0.6
v -1.4 0.8 0.6
v -1.4 0.9 0.6
v -1.3 0.7 0.6
v -1.3 0.8 0.6
v -1.2 0.7 0.6
v -1.2 0.8 0.6
v -1.1 0.6 0.6
v -1.1 0.7 0.6
v -1.1 0.8 0.6
v -1.1 0.9 0.6
v -1 0.5 0.6
v -1 0.6 0.6
v -1 0.7 0.6
v -1 0.8 0.6
v -0.9 0.4 0.6
v -0.9 0.5 0.6
v -0.9 0.7 0.6
v -0.9 0.8 0.6
v -0.9 0.9 0.6
v -0.9 1 0.6
v -0.9 1.1 0.6
v -0.9 1.2 0.6
v -0.8 0.3 0.6
v -0.8 0.4 0.6
v -0.8 0.8 0.6
v -0.8 0.9 0.6
v -0.8 1 0.6
v -0.8 1.1 0.6
v -0.8 1.2 0.6
v -0.7 0.2 0.6
v -0.7 0.3 0.6
v -0.7 0.9 0.6
v -0.7 1 0.6
v -0.7 1.1 0.6
v -0.7 1.2 0.6
v -0.6 0.1 0.6
v -0.6 0.2 0.6
v -0.6 1 0.6
v -0.6 1.1 0.6
v -0.6 1.2 0.6
v -0.5 1.1 0.6
v -0.5 1.2 0.6
v 1.19209e-07 0.4 0.6
v 1.19209e-07 1.1 0.6
v 0.2 0.4 0.6
v 0.2 1.1 0.6
v 0.7 1.1 0.6
v 0.7 1.2 0.6
v 0.8 0.1 0.6
v 0.8 0.2 0.6
v 0.8 1 0.6
v 0.8 1.1 0.6
v 0.8 1.2 0.6
v 0.9 0.2 0.6
v 0.9 0.3 0.6
v 0.9 0.9 0.6
v 0.9 1 0.6
v 0.9 1.1 0.6
v 0.9 1.2 0.6
v 1 0.3 0.6
v 1 0.4 0.6
v 1 0.8 0.6
v 1 0.9 0.6
v 1 1 0.6
v 1 1.1 0.6
v 1 1.2 0.6
v 1.1 0.4 0.6
v 1.1 0.5 0.6
v 1.1 0.7 0.6
v 1.1 0.8 0.6
v 1.1 0.9 0.6
v 1.1 1 0.6
v 1.1 1.1 0.6
v 1.1 1.2 0.6
v 1.2 0.5 0.6
v 1.2 0.6 0.6
v 1.2 0.7 0.6
v 1.2 0.8 0.6
v 1.3 0.6 0.6
v 1.3 0.7 0.6
v 1.3 0.8 0.6
v 1.3 0.9 0.6
v 1.4 0.7 0.6
v 1.4 0.8 0.6
v 1.5 0.7 0.6
v 1.5 0.8 0.6
v 1.6 0.6 0.6
v 1.6 0.7 0.6
v 1.6 0.8 0.6
v 1.6 0.9 0.6
v 1.7 0.5 0.6
v 1.7 0.6 0.6
v 1.7 0.7 0.6
v 1.7 0.8 0.6
v 1.8 0.4 0.6
v 1.8 0.5 0.6
v 1.8 0.6 0.6
v 1.8 0.7 0.6
v 1.9 0.4 0.6
v 1.9 0.6 0.6
v -0.4 0 0.5
v -0.4 0.1 0.5
v 0.6 0 0.5
v 0.6 0.1 0.5
v 1.19209e-07 0.4 0.0999999
v 1.19209e-07 1.1 0.0999999
v 0.2 0.4 0.0999999
v 0.2 1.1 0.0999999
v -0.4 0 0.0999999
v -0.4 0.1 0.0999999
v 0.6 0 0.0999999
v 0.6 0.1 0.0999999
v -1.7 0.4 -5.96046e-08
v -1.7 0.6 -5.96046e-08
v -1.6 0.4 -5.96046e-08
v -1.6 0.5 -5.96046e-08
v -1.6 0.6 -5.96046e-08
v -1.6 0.7 -5.96046e-08
v -1.5 0.5 -5.96046e-08
v -1.5 0.6 -5.96046e-08
v -1.5 0.7 -5.96046e-08
v -1.5 0.8 -5.96046e-08
v -1.4 0.6 -5.96046e-08
v -1.4 0.7 -5.96046e-08
v -1.4 0.8 -5.96046e-08
v -1.4 0.9 -5.96046e-08
v -1.3 0.7 -5.96046e-08
v -1.3 0.8 -5.96046e-08
v -1.2 0.7 -5.96046e-08
v -1.2 0.8 -5.96046e-08
v -1.1 0.6 -5.96046e-08
v -1.1 0.7 -5.96046e-08
v -1.1 0.8 -5.96046e-08
v -1.1 0.9 -5.96046e-08
v -1 0.5 -5.96046e-08
v -1 0.6 -5.96046e-08
v -1 0.7 -5.96046e-08
v -1 0.8 -5.96046e-08
v -0.9 0.4 -5.96046e-08
v -0.9 0.5 -5.96046e-08
v -0.9 0.7 -5.96046e-08
v -0.9 0.8 -5.96046e-08
v -0.9 0.9 -5.96046e-08
v -0.9 1 -5.96046e-08
v -0.9 1.1 -5.96046e-08
v -0.9 1.2 -5.96046e-08
v -0.8 0.3 -5.96046e-08
v -0.8 0.4 -5.96046e-08
v -0.8 0.8 -5.96046e-08
v -0.8 0.9 -5.96046e-08
v -0.8 1 -5.96046e-08
v -0.8 1.1 -5.96046e-08
v -0.8 1.2 -5.96046e-08
v -0.7 0.2 -5.96046e-08
v -0.7 0.3 -5.96046e-08
v -0.7 0.9 -5.96046e-08
v -0.7 1 -5.96046e-08
v -0.7 1.1 -5.96046e-08
v -0.7 1.2 -5.96046e-08
v -0.6 0.1 -5.96046e-08
v -0.6 0.2 -5.96046e-08
v -0.6 1 -5.96046e-08
v -0.6 1.1 -5.96046e-08
v -0.6 1.2 -5.96046e-08
v -0.5 1.1 -5.96046e-08
v -0.5 1.2 -5.96046e-08
v 1.19209e-07 0.4 -5.96046e-08
v 1.19209e-07 1.1 -5.96046e-08
v 0.2 0.4 -5.96046e-08
v 0.2 1.1 -5.96046e-08
v 0.7 1.1 -5.96046e-08
v 0.7 1.2 -5.96046e-08
v 0.8 0.1 -5.96046e-08
v 0.8 0.2 -5.96046e-08
v 0.8 1 -5.96046e-08
v 0.8 1.1 -5.96046e-08
v 0.8 1.2 -5.96046e-08
v 0.9 0.2 -5.96046e-08
v 0.9 0.3 -5.96046e-08
v 0.9 0.9 -5.96046e-08
v 0.9 1 -5.96046e-08
v 0.9 1.1 -5.96046e-08
v 0.9 1.2 -5.96046e-08
v 1 0.3 -5.96046e-08
v 1 0.4 -5.96046e-08
v 1 0.8 -5.96046e-08
v 1 0.9 -5.96046e-08
v 1 1 -5.96046e-08
v 1 1.1 -5.96046e-08
v 1 1.2 -5.96046e-08
v 1.1 0.4 -5.96046e-08
v 1.1 0.5 -5.96046e-08
v 1.1 0.7 -5.96046e-08
v 1.1 0.8 -5.96046e-08
v 1.1 0.9 -5.96046e-08
v 1.1 1 -5.96046e-08
v 1.1 1.1 -5.96046e-08
v 1.1 1.2 -5.96046e-08
v 1.2 0.5 -5.96046e-08
v 1.2 0.6 -5.96046e-08
v 1.2 0.7 -5.96046e-08
v 1.2 0.8 -5.96046e-08
v 1.3 0.6 -5.96046e-08
v 1.3 0.7 -5.96046e-08
v 1.3 0.8 -5.96046e-08
v 1.3 0.9 -5.96046e-08
v 1.4 0.7 -5.96046e-08
v 1.4 0.8 -5.96046e-08
v 1.5 0.7 -5.96046e-08
v 1.5 0.8 -5.96046e-08
v 1.6 0.6 -5.96046e-08
v 1.6 0.7 -5.96046e-08
v 1.6 0.8 -5.96046e-08
v 1.6 0.9 -5.96046e-08
v 1.7 0.5 -5.96046e-08
v 1.7 0.6 -5.96046e-08
v 1.7 0.7 -5.96046e-08
v 1.7 0.8 -5.96046e-08
v 1.8 0.4 -5.96046e-08
v 1.8 0.5 -5.96046e-08
v 1.8 0.6 -5.96046e-08
v 1.8 0.7 -5.96046e-08
v 1.9 0.4 -5.96046e-08
v 1.9 0.6 -5.96046e-08
v -0.4 0 0.5
v 0.6 0 0.5
v -0.4 0 0.0999999
v 0.6 0 0.0999999
v -0.6 0.1 0.6
v 0.8 0.1 0.6
v -0.4 0.1 0.5
v 0.6 0.1 0.5
v -0.4 0.1 0.0999999
v 0.6 0.1 0.0999999
v -0.6 0.1 -5.96046e-08
v 0.8 0.1 -5.96046e-08
v -0.7 0.2 0.6
v -0.6 0.2 0.6
v 0.8 0.2 0.6
v 0.9 0.2 0.6
v -0.7 0.2 -5.96046e-08
v -0.6 0.2 -5.96046e-08
v 0.8 0.2 -5.96046e-08
v 0.9 0.2 -5.96046e-08
v -0.8 0.3 0.6
v -0.7 0.3 0.6
v 0.9 0.3 0.6
v 1 0.3 0.6
v -0.8 0.3 -5.96046e-08
v -0.7 0.3 -5.96046e-08
v 0.9 0.3 -5.96046e-08
v 1 0.3 -5.96046e-08
v -1.7 0.4 0.6
v -1.6 0.4 0.6
v -0.9 0.4 0.6
v -0.8 0.4 0.6
v 1 0.4 0.6
v 1.1 0.4 0.6
v 1.8 0.4 0.6
v 1.9 0.4 0.6
v -1.7 0.4 -5.96046e-08
v -1.6 0.4 -5.96046e-08
v -0.9 0.4 -5.96046e-08
v -0.8 0.4 -5.96046e-08
v 1 0.4 -5.96046e-08
v 1.1 0.4 -5.96046e-08
v 1.8 0.4 -5.96046e-08
v 1.9 0.4 -5.96046e-08
v -1.6 0.5 0.6
v -1.5 0.5 0.6
v -1 0.5 0.6
v -0.9 0.5 0.6
v 1.1 0.5 0.6
v 1.2 0.5 0.6
v 1.7 0.5 0.6
v 1.8 0.5 0.6
v -1.6 0.5 -5.96046e-08
v -1.5 0.5 -5.96046e-08
v -1 0.5 -5.96046e-08
v -0.9 0.5 -5.96046e-08
v 1.1 0.5 -5.96046e-08
v 1.2 0.5 -5.96046e-08
v 1.7 0.5 -5.96046e-08
v 1.8 0.5 -5.96046e-08
v -1.5 0.6 0.6
v -1.4 0.6 0.6
v -1.1 0.6 0.6
v -1 0.6 0.6
v 1.2 0.6 0.6
v 1.3 0.6 0.6
v 1.6 0.6 0.6
v 1.7 0.6 0.6
v -1.5 0.6 -5.96046e-08
v -1.4 0.6 -5.96046e-08
v -1.1 0.6 -5.96046e-08
v -1 0.6 -5.96046e-08
v 1.2 0.6 -5.96046e-08
v 1.3 0.6 -5.96046e-08
v 1.6 0.6 -5.96046e-08
v 1.7 0.6 -5.96046e-08
v -1.4 0.7 0.6
v -1.3 0.7 0.6
v -1.2 0.7 0.6
v -1.1 0.7 0.6
v 1.3 0.7 0.6
v 1.4 0.7 0.6
v 1.5 0.7 0.6
v 1.6 0.7 0.6
v -1.4 0.7 -5.96046e-08
v -1.3 0.7 -5.96046e-08
v -1.2 0.7 -5.96046e-08
v -1.1 0.7 -5.96046e-08
v 1.3 0.7 -5.96046e-08
v 1.4 0.7 -5.96046e-08
v 1.5 0.7 -5.96046e-08
v 1.6 0.7 -5.96046e-08
v -1.3 0.8 0.6
v -1.2 0.8 0.6
v 1.4 0.8 0.6
v 1.5 0.8 0.6
v -1.3 0.8 -5.96046e-08
v -1.2 0.8 -5.96046e-08
v 1.4 0.8 -5.96046e-08
v 1.5 0.8 -5.96046e-08
v -0.9 0.9 0.6
v -0.8 0.9 0.6
v 1 0.9 0.6
v 1.1 0.9 0.6
v -0.9 0.9 -5.96046e-08
v -0.8 0.9 -5.96046e-08
v 1 0.9 -5.96046e-08
v 1.1 0.9 -5.96046e-08
v -0.8 1.1 0.6
v -0.7 1.1 0.6
v 1.19209e-07 1.1 0.6
v 0.2 1.1 0.6
v 0.9 1.1 0.6
v 1 1.1 0.6
v 1.19209e-07 1.1 0.0999999
v 0.2 1.1 0.0999999
v -0.8 1.1 -5.96046e-08
v -0.7 1.1 -5.96046e-08
v 0.9 1.1 -5.96046e-08
v 1 1.1 -5.96046e-08
v 1.19209e-07 0.4 0.6
v 0.2 0.4 0.6
v 1.19209e-07 0.4 0.0999999
v 0.2 0.4 0.0999999
v -1.7 0.6 0.6
v -1.6 0.6 0.6
v 1.8 0.6 0.6
v 1.9 0.6 0.6
v -1.7 0.6 -5.96046e-08
v -1.6 0.6 -5.96046e-08
v 1.8 0.6 -5.96046e-08
v 1.9 0.6 -5.96046e-08
v -1.6 0.7 0.6
v -1.5 0.7 0.6
v -1 0.7 0.6
v -0.9 0.7 0.6
v 1.1 0.7 0.6
v 1.2 0.7 0.6
v 1.7 0.7 0.6
v 1.8 0.7 0.6
v -1.6 0.7 -5.96046e-08
v -1.5 0.7 -5.96046e-08
v -1 0.7 -5.96046e-08
v -0.9 0.7 -5.96046e-08
v 1.1 0.7 -5.96046e-08
v 1.2 0.7 -5.96046e-08
v 1.7 0.7 -5.96046e-08
v 1.8 0.7 -5.96046e-08
v -1.5 0.8 0.6
v -1.4 0.8 0.6
v -1.1 0.8 0.6
v -1 0.8 0.6
v -0.9 0.8 0.6
v -0.8 0.8 0.6
v 1 0.8 0.6
v 1.1 0.8 0.6
v 1.2 0.8 0.6
v 1.3 0.8 0.6
v 1.6 0.8 0.6
v 1.7 0.8 0.6
v -1.5 0.8 -5.96046e-08
v -1.4 0.8 -5.96046e-08
v -1.1 0.8 -5.96046e-08
v -1 0.8 -5.96046e-08
v -0.9 0.8 -5.96046e-08
v -0.8 0.8 -5.96046e-08
v 1 0.8 -5.96046e-08
v 1.1 0.8 -5.96046e-08
v 1.2 0.8 -5.96046e-08
v 1.3 0.8 -5.96046e-08
v 1.6 0.8 -5.96046e-08
v 1.7 0.8 -5.96046e-08
v -1.4 0.9 0.6
v -1.1 0.9 0.6
v 1.3 0.9 0.6
v 1.6 0.9 0.6
v -1.4 0.9 -5.96046e-08
v -1.1 0.9 -5.96046e-08
v 1.3 0.9 -5.96046e-08
v 1.6 0.9 -5.96046e-08
v -0.8 1 0.6
v -0.7 1 0.6
v 0.9 1 0.6
v 1 1 0.6
v -0.8 1 -5.96046e-08
v -0.7 1 -5.96046e-08
v 0.9 1 -5.96046e-08
v 1 1 -5.96046e-08
v -0.6 1.1 0.6
v -0.5 1.1 0.6
v 0.7 1.1 0.6
v 0.8 1.1 0.6
v -0.6 1.1 -5.96046e-08
v -0.5 1.1 -5.96046e-08
v 0.7 1.1 -5.96046e-08
v 0.8 1.1 -5.96046e-08
v -0.9 1.2 0.6
v -0.8 1.2 0.6
v -0.7 1.2 0.6
v -0.6 1.2 0.6
v -0.5 1.2 0.6
v 0.7 1.2 0.6
v 0.8 1.2 0.6
v 0.9 1.2 0.6
v 1 1.2 0.6
v 1.1 1.2 0.6
v -0.9 1.2 -5.96046e-08
v -0.8 1.2 -5.96046e-08
v -0.7 1.2 -5.96046e-08
v -0.6 1.2 -5.96046e-08
v -0.5 1.2 -5.96046e-08
v 0.7 1.2 -5.96046e-08
v 0.8 1.2 -5.96046e-08
v 0.9 1.2 -5.96046e-08
v 1 1.2 -5.96046e-08
v 1.1 1.2 -5.96046e-08

# faces
f 3/3/1 2/3/1 1/3/1
f 4/3/1 2/3/1 3/3/1
f 7/3/1 6/3/1 5/3/1
f 8/3/1 6/3/1 7/3/1
f 11/3/1 10/3/1 9/3/1
f 12/3/1 10/3/1 11/3/1
f 15/3/1 14/3/1 13/3/1
f 16/3/1 14/3/1 15/3/1
f 19/3/1 18/3/1 17/3/1
f 20/3/1 18/3/1 19/3/1
f 23/3/1 22/3/1 21/3/1
f 24/3/1 22/3/1 23/3/1
f 27/3/1 26/3/1 25/3/1
f 28/3/1 26/3/1 27/3/1
f 31/2/1 30/2/1 29/2/1
f 32/2/1 30/2/1 31/2/1
f 35/2/1 34/2/1 33/2/1
f 36/2/1 34/2/1 35/2/1
f 39/2/1 38/2/1 37/2/1
f 40/2/1 38/2/1 39/2/1
f 41/1/1 40/1/1 39/1/1
f 42/1/1 40/1/1 41/1/1
f 43/2/1 42/2/1 41/2/1
f 44/2/1 42/2/1 43/2/1
f 47/2/1 46/2/1 45/2/1
f 48/2/1 46/2/1 47/2/1
f 51/2/1 50/2/1 49/2/1
f 52/2/1 50/2/1 51/2/1
f 55/2/1 54/2/1 53/2/1
f 56/2/1 54/2/1 55/2/1
f 59/1/1 58/1/1 57/1/1
f 60/1/1 58/1/1 59/1/1
f 63/2/1 62/2/1 61/2/1
f 64/2/1 62/2/1 63/2/1
f 67/2/1 66/2/1 65/2/1
f 68/2/1 66/2/1 67/2/1
f 71/2/1 70/2/1 69/2/1
f 72/2/1 70/2/1 71/2/1
f 75/2/1 74/2/1 73/2/1
f 76/2/1 74/2/1 75/2/1
f 79/2/1 78/2/1 77/2/1
f 80/2/1 78/2/1 79/2/1
f 83/1/1 82/1/1 81/1/1
f 84/1/1 82/1/1 83/1/1
f 87/3/1 86/3/1 85/3/1
f 88/3/1 86/3/1 87/3/1
f 91/3/1 90/3/1 89/3/1
f 92/3/1 90/3/1 91/3/1
f 95/3/1 94/3/1 93/3/1
f 96/3/1 94/3/1 95/3/1
f 99/3/1 98/3/1 97/3/1
f 100/3/1 98/3/1 99/3/1
f 103/3/1 102/3/1 101/3/1
f 104/3/1 102/3/1 103/3/1
f 107/3/1 106/3/1 105/3/1
f 108/3/1 106/3/1 107/3/1
f 109/3/2 110/3/2 111/3/2
f 111/3/2 110/3/2 112/3/2
f 113/3/2 114/3/2 115/3/2
f 115/3/2 114/3/2 116/3/2
f 117/3/2 118/3/2 119/3/2
f 119/3/2 118/3/2 120/3/2
f 121/3/2 122/3/2 123/3/2
f 123/3/2 122/3/2 124/3/2
f 125/3/2 126/3/2 127/3/2
f 127/3/2 126/3/2 128/3/2
f 129/3/2 130/3/2 131/3/2
f 131/3/2 130/3/2 132/3/2
f 133/1/2 134/1/2 135/1/2
f 135/1/2 134/1/2 136/1/2
f 137/2/2 138/2/2 139/2/2
f 139/2/2 138/2/2 140/2/2
f 141/2/2 142/2/2 143/2/2
f 143/2/2 142/2/2 144/2/2
f 145/2/2 146/2/2 147/2/2
f 147/2/2 146/2/2 148/2/2
f 149/2/2 150/2/2 151/2/2
f 151/2/2 150/2/2 152/2/2
f 153/2/2 154/2/2 155/2/2
f 155/2/2 154/2/2 156/2/2
f 157/2/2 158/2/2 159/2/2
f 159/2/2 158/2/2 160/2/2
f 161/1/2 162/1/2 163/1/2
f 163/1/2 162/1/2 164/1/2
f 165/2/2 166/2/2 167/2/2
f 167/2/2 166/2/2 168/2/2
f 169/2/2 170/2/2 171/2/2
f 171/2/2 170/2/2 172/2/2
f 173/2/2 174/2/2 175/2/2
f 175/2/2 174/2/2 176/2/2
f 177/2/2 178/2/2 179/2/2
f 179/2/2 178/2/2 180/2/2
f 181/2/2 182/2/2 183/2/2
f 183/2/2 182/2/2 184/2/2
f 183/1/2 184/1/2 185/1/2
f 185/1/2 184/1/2 186/1/2
f 185/2/2 186/2/2 187/2/2
f 187/2/2 186/2/2 188/2/2
f 189/3/2 190/3/2 191/3/2
f 191/3/2 190/3/2 192/3/2
f 193/3/2 194/3/2 195/3/2
f 195/3/2 194/3/2 196/3/2
f 197/3/2 198/3/2 199/3/2
f 199/3/2 198/3/2 200/3/2
f 201/3/2 202/3/2 203/3/2
f 203/3/2 202/3/2 204/3/2
f 205/3/2 206/3/2 207/3/2
f 207/3/2 206/3/2 208/3/2
f 209/3/2 210/3/2 211/3/2
f 211/3/2 210/3/2 212/3/2
f 213/3/2 214/3/2 215/3/2
f 215/3/2 214/3/2 216/3/2
f 219/3/3 218/3/3 217/3/3
f 220/3/3 218/3/3 219/3/3
f 221/3/3 218/3/3 220/3/3
f 223/3/3 222/3/3 221/3/3
f 223/3/3 221/3/3 220/3/3
f 224/3/3 222/3/3 223/3/3
f 225/3/3 222/3/3 224/3/3
f 227/3/3 226/3/3 225/3/3
f 227/3/3 225/3/3 224/3/3
f 228/3/3 226/3/3 227/3/3
f 229/3/3 226/3/3 228/3/3
f 231/3/3 230/3/3 229/3/3
f 231/3/3 229/3/3 228/3/3
f 232/3/3 230/3/3 231/3/3
f 234/3/3 230/3/3 232/3/3
f 236/3/3 234/3/3 233/3/3
f 237/3/3 230/3/3 234/3/3
f 237/3/3 234/3/3 236/3/3
f 238/3/3 230/3/3 237/3/3
f 240/3/3 236/3/3 235/3/3
f 240/3/3 237/3/3 236/3/3
f 241/3/3 237/3/3 240/3/3
f 242/3/3 237/3/3 241/3/3
f 244/3/3 240/3/3 239/3/3
f 244/3/3 241/3/3 240/3/3
f 245/3/3 241/3/3 244/3/3
f 252/2/3 245/2/3 244/2/3
f 252/2/3 246/2/3 245/2/3
f 252/2/3 244/2/3 243/2/3
f 253/2/3 246/2/3 252/2/3
f 254/2/3 248/2/3 247/2/3
f 255/1/3 249/1/3 248/1/3
f 255/2/3 248/2/3 254/2/3
f 256/2/3 250/2/3 249/2/3
f 256/1/3 249/1/3 255/1/3
f 257/2/3 250/2/3 256/2/3
f 259/2/3 254/2/3 253/2/3
f 259/2/3 253/2/3 252/2/3
f 259/2/3 252/2/3 251/2/3
f 260/1/3 255/1/3 254/1/3
f 260/2/3 254/2/3 259/2/3
f 261/1/3 255/1/3 260/1/3
f 262/1/3 257/1/3 256/1/3
f 263/1/3 257/1/3 262/1/3
f 265/2/3 259/2/3 258/2/3
f 265/2/3 261/2/3 260/2/3
f 265/2/3 260/2/3 259/2/3
f 266/1/3 262/1/3 261/1/3
f 266/2/3 261/2/3 265/2/3
f 267/2/3 263/2/3 262/2/3
f 267/1/3 262/1/3 266/1/3
f 268/2/3 263/2/3 267/2/3
f 269/2/3 266/2/3 265/2/3
f 269/2/3 265/2/3 264/2/3
f 269/2/3 267/2/3 266/2/3
f 271/2/3 269/2/3 264/2/3
f 271/2/3 270/2/3 269/2/3
f 272/2/3 270/2/3 271/2/3
f 273/2/3 271/2/3 264/2/3
f 274/2/3 270/2/3 272/2/3
f 275/2/3 270/2/3 274/2/3
f 275/2/3 274/2/3 273/2/3
f 276/2/3 270/2/3 275/2/3
f 277/2/3 273/2/3 264/2/3
f 277/2/3 275/2/3 273/2/3
f 278/2/3 275/2/3 277/2/3
f 279/2/3 275/2/3 278/2/3
f 280/2/3 275/2/3 279/2/3
f 282/2/3 279/2/3 278/2/3
f 283/2/3 279/2/3 282/2/3
f 284/2/3 279/2/3 283/2/3
f 285/1/3 280/1/3 279/1/3
f 285/2/3 279/2/3 284/2/3
f 286/2/3 281/2/3 280/2/3
f 286/1/3 280/1/3 285/1/3
f 287/2/3 281/2/3 286/2/3
f 288/2/3 284/2/3 283/2/3
f 289/2/3 284/2/3 288/2/3
f 290/2/3 284/2/3 289/2/3
f 291/1/3 285/1/3 284/1/3
f 291/2/3 284/2/3 290/2/3
f 292/1/3 285/1/3 291/1/3
f 293/1/3 287/1/3 286/1/3
f 294/1/3 287/1/3 293/1/3
f 295/2/3 290/2/3 289/2/3
f 296/2/3 290/2/3 295/2/3
f 297/2/3 290/2/3 296/2/3
f 298/2/3 290/2/3 297/2/3
f 299/2/3 292/2/3 291/2/3
f 300/1/3 293/1/3 292/1/3
f 300/2/3 292/2/3 299/2/3
f 301/2/3 294/2/3 293/2/3
f 301/1/3 293/1/3 300/1/3
f 302/2/3 294/2/3 301/2/3
f 303/3/3 297/3/3 296/3/3
f 304/3/3 297/3/3 303/3/3
f 305/3/3 297/3/3 304/3/3
f 307/3/3 306/3/3 305/3/3
f 307/3/3 305/3/3 304/3/3
f 308/3/3 306/3/3 307/3/3
f 309/3/3 306/3/3 308/3/3
f 311/3/3 310/3/3 309/3/3
f 311/3/3 309/3/3 308/3/3
f 312/3/3 310/3/3 311/3/3
f 314/3/3 310/3/3 312/3/3
f 316/3/3 314/3/3 313/3/3
f 317/3/3 310/3/3 314/3/3
f 317/3/3 314/3/3 316/3/3
f 318/3/3 310/3/3 317/3/3
f 320/3/3 316/3/3 315/3/3
f 320/3/3 317/3/3 316/3/3
f 321/3/3 317/3/3 320/3/3
f 322/3/3 317/3/3 321/3/3
f 324/3/3 320/3/3 319/3/3
f 324/3/3 321/3/3 320/3/3
f 325/3/3 321/3/3 324/3/3
f 326/3/3 321/3/3 325/3/3
f 327/3/3 324/3/3 323/3/3
f 327/3/3 325/3/3 324/3/3
f 328/3/3 325/3/3 327/3/3
f 331/2/3 330/2/3 329/2/3
f 332/2/3 330/2/3 331/2/3
f 335/1/3 334/1/3 333/1/3
f 336/1/3 334/1/3 335/1/3
f 337/2/4 338/2/4 339/2/4
f 339/2/4 338/2/4 340/2/4
f 341/3/4 342/3/4 343/3/4
f 343/3/4 342/3/4 344/3/4
f 344/3/4 342/3/4 345/3/4
f 345/3/4 346/3/4 347/3/4
f 344/3/4 345/3/4 347/3/4
f 347/3/4 346/3/4 348/3/4
f 348/3/4 346/3/4 349/3/4
f 349/3/4 350/3/4 351/3/4
f 348/3/4 349/3/4 351/3/4
f 351/3/4 350/3/4 352/3/4
f 352/3/4 350/3/4 353/3/4
f 353/3/4 354/3/4 355/3/4
f 352/3/4 353/3/4 355/3/4
f 355/3/4 354/3/4 356/3/4
f 356/3/4 354/3/4 358/3/4
f 357/3/4 358/3/4 360/3/4
f 358/3/4 354/3/4 361/3/4
f 360/3/4 358/3/4 361/3/4
f 361/3/4 354/3/4 362/3/4
f 359/3/4 360/3/4 364/3/4
f 360/3/4 361/3/4 364/3/4
f 364/3/4 361/3/4 365/3/4
f 365/3/4 361/3/4 366/3/4
f 363/3/4 364/3/4 368/3/4
f 364/3/4 365/3/4 368/3/4
f 368/3/4 365/3/4 369/3/4
f 368/2/4 369/2/4 376/2/4
f 369/2/4 370/2/4 376/2/4
f 367/2/4 368/2/4 376/2/4
f 376/2/4 370/2/4 377/2/4
f 371/2/4 372/2/4 378/2/4
f 372/1/4 373/1/4 379/1/4
f 378/2/4 372/2/4 379/2/4
f 373/2/4 374/2/4 380/2/4
f 379/1/4 373/1/4 380/1/4
f 380/2/4 374/2/4 381/2/4
f 377/2/4 378/2/4 383/2/4
f 376/2/4 377/2/4 383/2/4
f 375/2/4 376/2/4 383/2/4
f 378/1/4 379/1/4 384/1/4
f 383/2/4 378/2/4 384/2/4
f 384/1/4 379/1/4 385/1/4
f 380/1/4 381/1/4 386/1/4
f 386/1/4 381/1/4 387/1/4
f 382/2/4 383/2/4 389/2/4
f 384/2/4 385/2/4 389/2/4
f 383/2/4 384/2/4 389/2/4
f 385/1/4 386/1/4 390/1/4
f 389/2/4 385/2/4 390/2/4
f 386/2/4 387/2/4 391/2/4
f 390/1/4 386/1/4 391/1/4
f 391/2/4 387/2/4 392/2/4
f 389/2/4 390/2/4 393/2/4
f 388/2/4 389/2/4 393/2/4
f 390/2/4 391/2/4 393/2/4
f 388/2/4 393/2/4 395/2/4
f 393/2/4 394/2/4 395/2/4
f 395/2/4 394/2/4 396/2/4
f 388/2/4 395/2/4 397/2/4
f 395/1/4 396/1/4 397/1/4
f 396/2/4 394/2/4 398/2/4
f 397/1/4 396/1/4 398/1/4
f 397/2/4 398/2/4 399/2/4
f 398/2/4 394/2/4 399/2/4
f 399/2/4 394/2/4 400/2/4
f 388/2/4 397/2/4 401/2/4
f 397/2/4 399/2/4 401/2/4
f 401/2/4 399/2/4 402/2/4
f 402/2/4 399/2/4 403/2/4
f 403/2/4 399/2/4 404/2/4
f 402/2/4 403/2/4 406/2/4
f 406/2/4 403/2/4 407/2/4
f 407/2/4 403/2/4 408/2/4
f 403/1/4 404/1/4 409/1/4
f 408/2/4 403/2/4 409/2/4
f 404/2/4 405/2/4 410/2/4
f 409/1/4 404/1/4 410/1/4
f 410/2/4 405/2/4 411/2/4
f 407/2/4 408/2/4 412/2/4
f 412/2/4 408/2/4 413/2/4
f 413/2/4 408/2/4 414/2/4
f 408/1/4 409/1/4 415/1/4
f 414/2/4 408/2/4 415/2/4
f 415/1/4 409/1/4 416/1/4
f 410/1/4 411/1/4 417/1/4
f 417/1/4 411/1/4 418/1/4
f 413/2/4 414/2/4 419/2/4
f 419/2/4 414/2/4 420/2/4
f 420/2/4 414/2/4 421/2/4
f 421/2/4 414/2/4 422/2/4
f 415/2/4 416/2/4 423/2/4
f 416/1/4 417/1/4 424/1/4
f 423/2/4 416/2/4 424/2/4
f 417/2/4 418/2/4 425/2/4
f 424/1/4 417/1/4 425/1/4
f 425/2/4 418/2/4 426/2/4
f 420/3/4 421/3/4 427/3/4
f 427/3/4 421/3/4 428/3/4
f 428/3/4 421/3/4 429/3/4
f 429/3/4 430/3/4 431/3/4
f 428/3/4 429/3/4 431/3/4
f 431/3/4 430/3/4 432/3/4
f 432/3/4 430/3/4 433/3/4
f 433/3/4 434/3/4 435/3/4
f 432/3/4 433/3/4 435/3/4
f 435/3/4 434/3/4 436/3/4
f 436/3/4 434/3/4 438/3/4
f 437/3/4 438/3/4 440/3/4
f 438/3/4 434/3/4 441/3/4
f 440/3/4 438/3/4 441/3/4
f 441/3/4 434/3/4 442/3/4
f 439/3/4 440/3/4 444/3/4
f 440/3/4 441/3/4 444/3/4
f 444/3/4 441/3/4 445/3/4
f 445/3/4 441/3/4 446/3/4
f 443/3/4 444/3/4 448/3/4
f 444/3/4 445/3/4 448/3/4
f 448/3/4 445/3/4 449/3/4
f 449/3/4 445/3/4 450/3/4
f 447/3/4 448/3/4 451/3/4
f 448/3/4 449/3/4 451/3/4
f 451/3/4 449/3/4 452/3/4
f 455/2/5 454/2/5 453/2/5
f 456/2/5 454/2/5 455/2/5
f 459/2/5 458/2/5 457/2/5
f 460/2/5 458/2/5 459/2/5
f 461/2/5 459/2/5 457/2/5
f 462/2/5 458/2/5 460/2/5
f 463/2/5 461/2/5 457/2/5
f 463/2/5 462/2/5 461/2/5
f 464/2/5 458/2/5 462/2/5
f 464/2/5 462/2/5 463/2/5
f 469/2/5 466/2/5 465/2/5
f 470/2/5 466/2/5 469/2/5
f 471/2/5 468/2/5 467/2/5
f 472/2/5 468/2/5 471/2/5
f 477/2/5 474/2/5 473/2/5
f 478/2/5 474/2/5 477/2/5
f 479/2/5 476/2/5 475/2/5
f 480/2/5 476/2/5 479/2/5
f 489/3/5 482/3/5 481/3/5
f 490/3/5 482/3/5 489/3/5
f 491/2/5 484/2/5 483/2/5
f 492/2/5 484/2/5 491/2/5
f 493/2/5 486/2/5 485/2/5
f 494/2/5 486/2/5 493/2/5
f 495/3/5 488/3/5 487/3/5
f 496/3/5 488/3/5 495/3/5
f 505/3/5 498/3/5 497/3/5
f 506/3/5 498/3/5 505/3/5
f 507/3/5 500/3/5 499/3/5
f 508/3/5 500/3/5 507/3/5
f 509/3/5 502/3/5 501/3/5
f 510/3/5 502/3/5 509/3/5
f 511/3/5 504/3/5 503/3/5
f 512/3/5 504/3/5 511/3/5
f 521/3/5 514/3/5 513/3/5
f 522/3/5 514/3/5 521/3/5
f 523/3/5 516/3/5 515/3/5
f 524/3/5 516/3/5 523/3/5
f 525/3/5 518/3/5 517/3/5
f 526/3/5 518/3/5 525/3/5
f 527/3/5 520/3/5 519/3/5
f 528/3/5 520/3/5 527/3/5
f 537/3/5 530/3/5 529/3/5
f 538/3/5 530/3/5 537/3/5
f 539/3/5 532/3/5 531/3/5
f 540/3/5 532/3/5 539/3/5
f 541/3/5 534/3/5 533/3/5
f 542/3/5 534/3/5 541/3/5
f 543/3/5 536/3/5 535/3/5
f 544/3/5 536/3/5 543/3/5
f 549/3/5 546/3/5 545/3/5
f 550/3/5 546/3/5 549/3/5
f 551/3/5 548/3/5 547/3/5
f 552/3/5 548/3/5 551/3/5
f 557/2/5 554/2/5 553/2/5
f 558/2/5 554/2/5 557/2/5
f 559/2/5 556/2/5 555/2/5
f 560/2/5 556/2/5 559/2/5
f 567/2/5 564/2/5 563/2/5
f 568/2/5 564/2/5 567/2/5
f 569/1/5 562/1/5 561/1/5
f 570/1/5 562/1/5 569/1/5
f 571/1/5 566/1/5 565/1/5
f 572/1/5 566/1/5 571/1/5
f 573/2/6 574/2/6 575/2/6
f 575/2/6 574/2/6 576/2/6
f 577/3/6 578/3/6 581/3/6
f 581/3/6 578/3/6 582/3/6
f 579/3/6 580/3/6 583/3/6
f 583/3/6 580/3/6 584/3/6
f 585/3/6 586/3/6 593/3/6
f 593/3/6 586/3/6 594/3/6
f 587/3/6 588/3/6 595/3/6
f 595/3/6 588/3/6 596/3/6
f 589/3/6 590/3/6 597/3/6
f 597/3/6 590/3/6 598/3/6
f 591/3/6 592/3/6 599/3/6
f 599/3/6 592/3/6 600/3/6
f 601/3/6 602/3/6 613/3/6
f 613/3/6 602/3/6 614/3/6
f 603/3/6 604/3/6 615/3/6
f 615/3/6 604/3/6 616/3/6
f 605/2/6 606/2/6 617/2/6
f 617/2/6 606/2/6 618/2/6
f 607/2/6 608/2/6 619/2/6
f 619/2/6 608/2/6 620/2/6
f 609/3/6 610/3/6 621/3/6
f 621/3/6 610/3/6 622/3/6
f 611/3/6 612/3/6 623/3/6
f 623/3/6 612/3/6 624/3/6
f 625/3/6 626/3/6 629/3/6
f 629/3/6 626/3/6 630/3/6
f 627/3/6 628/3/6 631/3/6
f 631/3/6 628/3/6 632/3/6
f 633/1/6 634/1/6 637/1/6
f 637/1/6 634/1/6 638/1/6
f 635/1/6 636/1/6 639/1/6
f 639/1/6 636/1/6 640/1/6
f 641/2/6 642/2/6 645/2/6
f 645/2/6 642/2/6 646/2/6
f 643/2/6 644/2/6 647/2/6
f 647/2/6 644/2/6 648/2/6
f 649/2/6 650/2/6 659/2/6
f 650/1/6 651/1/6 660/1/6
f 659/2/6 650/2/6 660/2/6
f 651/2/6 652/2/6 661/2/6
f 660/1/6 651/1/6 661/1/6
f 661/2/6 652/2/6 662/2/6
f 653/2/6 654/2/6 663/2/6
f 663/2/6 654/2/6 664/2/6
f 655/2/6 656/2/6 665/2/6
f 656/1/6 657/1/6 666/1/6
f 665/2/6 656/2/6 666/2/6
f 657/2/6 658/2/6 667/2/6
f 666/1/6 657/1/6 667/1/6
f 667/2/6 658/2/6 668/2/6
